<?xml version="1.0" encoding="UTF-8"?>
<svg version="1.1" viewBox="0 0 1000 1000" width="1000" height="1000" xmlns="http://www.w3.org/2000/svg">
<path transform="translate(550,115)" d="m0 0h13l13 15 13 17 14 21 10 18 12 23 15 32 8 16 5 16 4 14 5 18 2 15v29l-3 18-5 15-8 15-7 8h-2l-2 5-4 9-1 4v15l4 15 2 10 8 17 8 12 9 10 7 8 10 12 8 14 11 23 13 28 7 18 3 11 3 22 1 15v23l-1 6v12l12 2 42 9 29 8 27 10 21 10 18 11 11 9 9 8 10 14 5 11 2 9v18l-4 13-7 11-10 9-12 7-19 7-23 6-77 14-19 5-14 7-3 4 1 6 9 7 14 5 15 3 18 1h39l12 3 4 3-1 5-2 1-89-1-13-4-9-5-7-6-4-10 1-11 6-9 8-7 11-4 30-7 43-9 16-3 31-9 15-5 10-6 7-6 7-11 1-4v-14l-4-11-7-11-9-10-13-10-20-12-19-9-25-9-29-8-32-7-7-2-6 1-3 7-6 28-7 19-12 23-10 15-10 14-8 10-9 10-7 8-14 13-15 11-27 14-20 9-19 7-24 6-25 3-13 1h-44l-25-4-32-8-10-3-46-4-16-3-29-5-21-5-29-10-12-7-10-9-7-9-4-13-1-11 3-16 5-13 9-12 11-11 12-9 1-2-1-9-5-19-5-31-2-19 1-24 4-30 6-29 6-20 9-22 10-20 12-16 7-9 9-10 5-5 13-12h2l2-4 8-9 11-17 4-7 4-1v-11l6-9 2-7v-9l-7-10-6-9-3-10-1-10v-21l2-17 5-24 6-21 3-18v-35l-3-33-4-24-3-13v-11l3-3h10l7 3 11 9 11 11 10 13 14 19 17 25 10-1 20-3 18-1h35l24 2 12 3 2-26v-23l-2-37-1-10v-15zm-290 653-8 7-4 5-8 7-8 11-5 10-2 9 1 11 5 10 14 11 13 8 14 6 21 4 48 8 11 1v-3l-8-5-9-5-13-10-12-11-6-8-11-12-11-14-7-10-9-16-4-13z" fill="#FDFCF9"/>
<path transform="translate(550,115)" d="m0 0h13l13 15 13 17 14 21 10 18 12 23 15 32 8 16 5 16 4 14 5 18 2 15v29l-3 18-5 15-8 15-7 8h-2l-2 5-4 9-1 4v18l-26 8-25 5-21 2-26-4-24-2h-26l-26 2-12 2h-9l-42-6-38-9-5 1-1-1v-8l6-9 2-7v-9l-7-10-6-9-3-10-1-10v-21l2-17 5-24 6-21 3-18v-35l-3-33-4-24-3-13v-11l3-3h10l7 3 11 9 11 11 10 13 14 19 17 25 10-1 20-3 18-1h35l24 2 12 3 2-26v-23l-2-37-1-10v-15z" fill="#DA9600"/>
<path transform="translate(354,438)" d="m0 0 11 2 30 7 42 6h9l21-3 17-1h28l29 3 20 3 20-2 25-5 23-7 4 1 3 11 2 10 8 17 8 12 9 10 7 8 10 12 8 14 11 23 13 28 7 18 3 11 1 14-7-3-16-9-21-11-25-10-8-3-33-11-24-6-26-5-22-3-18-1h-31l-30 4-22 5-27 9-20 9-21 11-19 12-6 4-15 11-9 7h-2v2l-10 8-15 14-6 5-6 7-5 5-9 11-13 19-8 13-4 1-4-21-3-27 1-24 4-30 6-29 6-20 9-22 10-20 12-16 7-9 9-10 5-5 13-12h2l2-4 8-9 11-17 4-7 4-1z" fill="#DA9600"/>
<path transform="translate(492,567)" d="m0 0h31l27 2 30 5 25 6 27 8 21 7 12 5 24 11 26 14 5 3 4 2 2 23v23l-1 5-4-2-24-16-10-6-15-8-11-5-10-4-7-3-21-6-19-5-30-5-25-3-26-1h-14l-24 2-20 3-18 4-22 7-21 8-19 9-13 8-14 9-11 8-10 8h-2v2l-11 9-3 3h-2l-2 4-8 7-10 10-7 8-13 16-13 19-3 5-11 10-4 5-8 7-7 10-5 10-2 9 1 11 5 10 13 10 13 8 14 6 21 4 48 8 11 1-4-4-10-5-11-8-14-12-6-7-7-8-13-15-12-16-10-18-1-6 3-3 9-15 9-14 8-11 8-9h2l2-4 3 3 8 19 4 10 12 25 12 22 8 11 7 10 1 3 3 1 2 5 3 1 2 5 3 1 7 8 5 4 6 7 8 7 11 10 11 8 11 7 16 8-8 12-17-3-28-7-10-3-46-4-16-3-29-5-21-5-29-10-12-7-10-9-7-9-4-13-1-11 3-16 5-13 9-12 11-11 12-9 1-2-1-9-5-19v-2l4-2 7-12 11-16 9-12h2l2-4 7-8h2l1-3 8-7 7-7 8-7 6-5h2v-2l12-9 15-11 18-11 17-10 16-8 22-9 19-6 22-5z" fill="#DA9600"/>
<path transform="translate(497,512)" d="m0 0h15l27 2 24 4 25 6 36 12 19 7 11 5 29 13 22 11 7 15 7 18 3 11 1 14-7-3-16-9-21-11-25-10-8-3-33-11-24-6-26-5-22-3-18-1h-31l-30 4-22 5-27 9-20 9-21 11-19 12-6 4-15 11-9 7h-2v2l-10 8-15 14-6 5-6 7-5 5-9 11-13 19-8 13-4 1-4-21-3-27v-6h2l2-4 11-16 8-10 9-10 20-20 6-5h2l1-3 11-9 16-13 18-13 21-14 21-12 21-10 18-7 21-6 20-4z" fill="#DA9600"/>
<path transform="translate(550,625)" d="m0 0 29 3 37 7 17 5 3 1 2 6v22l-3 19-7 27-5 14-5 11-11 22-13 22-17 25-15 20-8 11-10 11-6 8-7 7-7 8h-2l-1 3-8 7-11 9-15 11-8 5h-27l-4-2 8-10 11-15 9-14 10-15 21-35 6-12 3-5 8-15 8-19 5-12 12-36 5-25 1-6 1-25-2-18-4-17z" fill="#DA9600"/>
<path transform="translate(373,664)" d="m0 0 3 1 6 18 8 20 11 20 15 25v2h2l8 13 11 15 11 13 9 10 7 6 6 7 10 8 5 5 5 4-1 5-14 22-9 14-12 17-12-4-12-7-10-6-5-5-11-9-6-5-7-8-7-6-5-6-5-5v-2h-2l-3-4v-2h-2l-2-5h-2l-4-6v-2h-2l-11-18-8-14-9-19-4-9-4-8-9-23 1-4h2l1-3h2l2-4 8-7 5-4 4-4 11-9 5-3h2l1-3 8-5z" fill="#DA9600"/>
<path transform="translate(703,675)" d="m0 0 4 1 17 12 1 6 12 2 42 9 29 8 27 10 21 10 18 11 11 9 9 8 10 14 5 11 2 9v18l-4 13-7 11-10 9-12 7-19 7-23 6-77 14-19 5-14 7-3 4 1 6 9 7 14 5 15 3 18 1h39l12 3 4 3-1 5-2 1-89-1-13-4-9-5-7-6-4-10 1-11 6-9 8-7 11-4 30-7 43-9 16-3 31-9 15-5 10-6 7-6 7-11 1-4v-14l-4-11-7-11-9-10-13-10-20-12-19-9-25-9-29-8-32-7-7-2-6 1-3 7-6 28-7 19-12 23-10 15-10 14-8 10-9 10-7 8-14 13-15 11-27 14-20 9-10 3 3-5 10-9 19-19 7-9 5-5 6-7 7-8 7-9 13-16 14-20 9-13 5-9 9-16 8-20 3-8 7-22z" fill="#DA9600"/>
<path transform="translate(443,634)" d="m0 0h4l4 15 10 24 10 21 9 15 6 9v2h2l4 6 8 10 6 5 5 5 13 12 3 2-1 6-7 15-6 12-9 16-4 8-5 8-4-2-6-4v-2h-2l-12-12-6-5-7-8-8-8-11-14v-2h-2l-5-8v-2h-2l-11-18v-2h-2l-6-11-6-10-5-9-7-14-6-15-5-17v-3l10-6 23-10 24-8z" fill="#DA9600"/>
<path transform="translate(645,644)" d="m0 0 9 3 18 8 16 9 9 5-3 23-7 26-5 14-5 10-4 10-3 5-5 8-4 7-14 20-14 19-18 22-6 8-5 5-11 12-7 8-12 12-8 7-13 11-5 4-1 2-20 4-18 2h-13l5-5 11-10 8-6 13-13 4-5h2v-2l5-5 18-22 8-10 11-16 8-11 12-18 7-11 3-6 10-19 5-11 6-15 6-19 5-25 1-8v-26z" fill="#D99600"/>
<path transform="translate(354,438)" d="m0 0 11 2 30 7 42 6h9l21-3 17-1h28l29 3 20 3 20-2 25-5 23-7 4 1 3 11 2 10 8 17 8 12 7 8h-3l-19-9-12-5-41-14-24-6-30-5-8-1h-49l-23 2-21 5-26 9-20 9-21 11-25 15-14 10-11 9-13 11-13 12-10 9-25 25-1-3 6-18 8-18 9-17 10-14 8-10 9-10 5-5 13-12h2l2-4 8-9 11-17 4-7 4-1z" fill="#FDFCFB"/>
<path transform="translate(507,624)" d="m0 0h30l5 1 4 14 3 16v30l-4 23-6 22-8 22h-3l-13-10-7-8-7-7-7-9-10-15-12-22-7-15-11-28-1-6 7-2 22-4z" fill="#DA9600"/>
<path transform="translate(578,279)" d="m0 0h15l9 4 9 6 7 7 6 9 1 6h2l3 11v8l-3 11h-2l-1 5-6 8-8 7-5 3-7 3-16 4h-13l-13-4-10-7-6-8-1-5h-2l-2-7v-14l3-12 1-3h2l1-5 6-9 4-5 13-9 6-1v-2z" fill="#F6EDD9"/>
<path transform="translate(347,443)" d="m0 0h5l1 2 34 8 22 4h10l2 3-1 2-15 4-18 8-21 11-19 12-19 14-14 12-11 9-10 9-11 9-15 14-11 13-1-3 9-22 10-20 12-16 7-9 9-10 5-5 13-12h2l2-4 8-9 11-17z" fill="#DA9600"/>
<path transform="translate(497,559)" d="m0 0h23l26 2 26 4 31 7 38 12 19 7 15 7 13 6 16 8 10 6 8 3 1 2v7l-7-3-16-9-21-11-25-10-8-3-33-11-24-6-26-5-22-3-18-1h-31l-30 4-22 5-27 9-20 9-21 11-19 12-6 4-15 11-9 7h-2v2l-10 8-15 14-6 5-6 7-5 5-9 11-13 19-8 13-4 1-1-9 1-3 3-1 10-15 11-15 8-10 6-5 7-8 8-7 11-10 11-9 13-10 11-8 22-14 16-9 17-9 28-11 21-6 20-4 15-2z" fill="#FCFBF9"/>
<path transform="translate(504,504)" d="m0 0 33 2 33 6 24 7 13 4 28 10 41 18 16 8 9 4 3 9-19-9-28-13-13-5-12-5-34-12-21-6-31-6-17-2-23-1-23 1-22 3-22 5-19 6-17 7-23 11-20 12-16 11-15 11-14 11-14 12-8 7-10 9-19 19-13 17-11 16h-1v-12l10-13 7-9 11-12 15-15 11-10 11-9 14-12 16-12 17-12 17-11 13-8 28-13 22-8 23-6 27-4z" fill="#FCFBF8"/>
<path transform="translate(584,293)" d="m0 0 10 2 8 6 6 7 4 11v12l-3 10-7 9-9 6-6 2h-10l-11-4-6-4-7-8-4-11v-10l4-11 7-8 8-5 8-3z"/>
<path transform="translate(433,299)" d="m0 0h13l9 4 8 9 4 12v11l-5 10-5 6-12 7-4 1h-16l-10-4-7-6-4-8-1-3v-15l4-9 7-8 10-5z"/>
<path transform="translate(425,288)" d="m0 0h16l9 2 11 6 8 9 3 6v4h2l4 14 1 1v11l-4 10-7 9-11 8-7 3-8 2h-17l-10-3-2-2-8-4-7-8-3-9h-2l-2-10v-11l4-13 7-10 7-7 8-5h4v-2zm8 11-12 3-9 6-6 7-3 8v15l4 9 6 7 8 4 4 1h16l10-4 6-4 8-11 2-5v-11l-4-12-8-9-9-4z" fill="#F6ECD9"/>
<path transform="translate(632,448)" d="m0 0h2l2 5 2 10 8 17v3l-16-8-25-9-18-5v-1l26-6z" fill="#DA9600"/>
</svg>
